<svg id="Capa_1" enable-background="new 0 0 512 512" height="512" viewBox="0 0 512 512" width="512" xmlns="http://www.w3.org/2000/svg" xmlns:xlink="http://www.w3.org/1999/xlink"><linearGradient id="SVGID_1_" gradientUnits="userSpaceOnUse" x1="256" x2="256" y1="496" y2="16"><stop offset="0" stop-color="#00b59c"/><stop offset="1" stop-color="#9cffac"/></linearGradient><g><g><path d="m244 340c6.003 8.003 18.011 7.985 24 0l90-120c7.406-9.875.339-24-12-24h-45v-165c0-8.284-6.716-15-15-15h-60c-8.284 0-15 6.716-15 15v165h-45c-12.333 0-19.409 14.121-12 24zm-18-114c8.284 0 15-6.716 15-15v-165h30v165c0 8.284 6.716 15 15 15h30l-60 80-60-80zm271 90h-121c-3.978 0-7.793 1.58-10.606 4.393l-55.607 55.607h-107.574l-55.607-55.607c-2.813-2.813-6.628-4.393-10.606-4.393h-121c-8.284 0-15 6.716-15 15v150c0 8.284 6.716 15 15 15h482c8.284 0 15-6.716 15-15v-150c0-8.284-6.716-15-15-15zm-15 150h-452v-120h99.787l55.607 55.606c2.813 2.813 6.628 4.394 10.606 4.394h120c3.978 0 7.793-1.581 10.606-4.394l55.607-55.606h99.787z" fill="url(#SVGID_1_)"/></g></g></svg>